<svg width="128" height="128" viewBox="0 0 128 128" xmlns="http://www.w3.org/2000/svg">
  <!-- Background circle -->
  <circle cx="64" cy="64" r="60" fill="#1976d2" stroke="#0d47a1" stroke-width="2"/>
  
  <!-- Database icon -->
  <ellipse cx="64" cy="45" rx="25" ry="8" fill="#fff" opacity="0.9"/>
  <rect x="39" y="45" width="50" height="20" fill="#fff" opacity="0.9"/>
  <ellipse cx="64" cy="65" rx="25" ry="8" fill="#fff" opacity="0.9"/>
  
  <!-- MCP Connection lines -->
  <line x1="20" y1="35" x2="35" y2="45" stroke="#fff" stroke-width="3" opacity="0.8"/>
  <line x1="20" y1="64" x2="35" y2="64" stroke="#fff" stroke-width="3" opacity="0.8"/>
  <line x1="20" y1="93" x2="35" y2="75" stroke="#fff" stroke-width="3" opacity="0.8"/>
  
  <line x1="93" y1="45" x2="108" y2="35" stroke="#fff" stroke-width="3" opacity="0.8"/>
  <line x1="93" y1="64" x2="108" y2="64" stroke="#fff" stroke-width="3" opacity="0.8"/>
  <line x1="93" y1="75" x2="108" y2="93" stroke="#fff" stroke-width="3" opacity="0.8"/>
  
  <!-- Protocol nodes -->
  <circle cx="15" cy="35" r="4" fill="#4caf50"/>
  <circle cx="15" cy="64" r="4" fill="#4caf50"/>
  <circle cx="15" cy="93" r="4" fill="#4caf50"/>
  
  <circle cx="113" cy="35" r="4" fill="#ff9800"/>
  <circle cx="113" cy="64" r="4" fill="#ff9800"/>
  <circle cx="113" cy="93" r="4" fill="#ff9800"/>
  
  <!-- "MCP" text -->
  <text x="64" y="100" text-anchor="middle" fill="#fff" font-family="Arial, sans-serif" font-size="12" font-weight="bold">MCP</text>
</svg>